<svg id="Layer_1" height="512" viewBox="0 0 512 512" width="512" xmlns="http://www.w3.org/2000/svg" data-name="Layer 1"><path d="m408.785 198.163v-110.869a14.016 14.016 0 0 0 -14-14h-277.57a14.016 14.016 0 0 0 -14 14v110.869h20.653v-31a30.793 30.793 0 0 1 30.758-30.763h60.274a30.793 30.793 0 0 1 30.758 30.758v31h20.688v-31a30.793 30.793 0 0 1 30.754-30.758h60.272a30.793 30.793 0 0 1 30.758 30.758v31z"/><path d="m297.1 148.4a18.779 18.779 0 0 0 -18.758 18.758v31h97.788v-31a18.779 18.779 0 0 0 -18.756-18.758z"/><path d="m154.626 148.4a18.779 18.779 0 0 0 -18.758 18.758v31h97.788v-31a18.779 18.779 0 0 0 -18.756-18.758z"/><path d="m471.242 208.163h-430.484a30.792 30.792 0 0 0 -30.758 30.757v193.786a6 6 0 0 0 12 0v-94.66h468v94.66a6 6 0 0 0 12 0v-193.786a30.792 30.792 0 0 0 -30.758-30.757zm18.758 103.892h-468v-12h468z"/></svg>