<svg id="Layer_1" height="512" viewBox="0 0 512 512" width="512" xmlns="http://www.w3.org/2000/svg" data-name="Layer 1">
    <path d="m471.242 204.163h-50.457v-110.869a26.029 26.029 0 0 0 -26-26h-277.57a26.029 26.029 0 0 0 -26 26v110.869h-50.457a30.792 30.792 0 0 0 -30.758 30.757v203.786a6 6 0 0 0 12 0v-82.66h468v82.66a6 6 0 0 0 12 0v-203.786a30.792 30.792 0 0 0 -30.758-30.757zm-368.027-110.869a14.016 14.016 0 0 1 14-14h277.57a14.016 14.016 0 0 1 14 14v110.869h-20.653v-31a30.793 30.793 0 0 0 -30.758-30.763h-60.274a30.793 30.793 0 0 0 -30.758 30.758v31h-20.686v-31a30.793 30.793 0 0 0 -30.756-30.758h-60.274a30.793 30.793 0 0 0 -30.758 30.758v31h-20.653zm175.129 110.869v-31a18.779 18.779 0 0 1 18.756-18.763h60.272a18.779 18.779 0 0 1 18.758 18.758v31zm-142.476 0v-31a18.779 18.779 0 0 1 18.758-18.763h60.274a18.779 18.779 0 0 1 18.758 18.758v31zm-95.11 12h430.484a18.779 18.779 0 0 1 18.758 18.757v71.135h-468v-71.135a18.779 18.779 0 0 1 18.758-18.757zm-18.758 127.883v-25.991h468v25.991z"/>
</svg>