<svg id="Layer_1" height="512" viewBox="0 0 512 512" width="512" xmlns="http://www.w3.org/2000/svg" data-name="Layer 1"><path d="m471.242 182.2h-15.642v-101.2a26.031 26.031 0 0 0 -26-26h-347.2a26.031 26.031 0 0 0 -26 26v101.2h-15.642c-16.958 0-30.758 15.463-30.758 34.469v234.331a6 6 0 0 0 12 0v-95.948h468v95.948a6 6 0 0 0 12 0v-234.331c0-19.006-13.8-34.469-30.758-34.469zm-402.842-101.2a14.016 14.016 0 0 1 14-14h347.2a14.016 14.016 0 0 1 14 14v101.2h-73.73v-36.549c0-19.006-16.233-34.468-36.187-34.468h-155.366c-19.954 0-36.187 15.462-36.187 34.468v36.549h-73.73zm85.73 101.2v-36.549c0-12.389 10.85-22.468 24.187-22.468h155.366c13.337 0 24.187 10.079 24.187 22.468v36.549zm-113.372 12h430.484c10.343 0 18.758 10.08 18.758 22.469v82.7h-468v-82.7c0-12.389 8.415-22.469 18.758-22.469zm-18.758 148.852v-31.686h468v31.686z"/></svg>