<svg version="1.1" id="Layer_1" xmlns="http://www.w3.org/2000/svg" xmlns:xlink="http://www.w3.org/1999/xlink" x="0px" y="0px"
	 viewBox="0 0 40.9 36.3" style="enable-background:new 0 0 40.9 36.3;" xml:space="preserve">
<style type="text/css">
	.st0{fill:#FFFFFF;}
	.st1{fill:#FFCC00;}
	.st2{fill:#008C3C;}
	.st3{fill:#0D181C;}
	.st4{fill:#153D8A;}
	.st5{fill:#E30613;}
</style>
<g>
	<path class="st0" d="M20.7,27.1L7.2,36.3l6.9-14.8L0,13.5l16.5,0.8L20.6,0l4.1,14.3l16.2-0.8l-13.6,7.8l6.9,14.8L20.7,27.1z"/>
	<path class="st0" d="M33.2,35.1l-12.5-8.5L8.2,35.1l6.4-13.8L1.6,14l15.2,0.8l3.8-13.2l3.9,13.2L39.7,14l-12.8,7.2L33.2,35.1z"/>
	<path class="st1" d="M33.2,35.1l-12.5-11l-12.5,11l12.5-15.4L33.2,35.1z"/>
	<path class="st2" d="M33.2,35.1L20.7,21L8.2,35.1l12.5-18.3L33.2,35.1z"/>
	<path class="st3" d="M33.2,35.1l-12.5-8.5L8.2,35.1l12.5-12.6L33.2,35.1z"/>
	<path class="st4" d="M21.4,16L20.7,1.7l3.8,13.1L39.7,14l-12.8,7.2L33.3,35L21.4,16z"/>
	<path class="st5" d="M20.7,1.7l-0.6,14.4l-11.8,19l6.4-13.8L1.7,14l15.2,0.8L20.7,1.7z"/>
</g>
</svg>
